<svg width="15" height="16" viewBox="0 0 15 16" fill="none" xmlns="http://www.w3.org/2000/svg"><path d="M10.476 3.446a5.102 5.102 0 013.189 4.733 5.1 5.1 0 01-3.189 4.733v1.065a6.099 6.099 0 004.19-5.798c0-2.704-1.755-5-4.19-5.801v1.068zm0 2.514a2.912 2.912 0 011.021 2.22 2.91 2.91 0 01-1.02 2.219v1.083a3.812 3.812 0 001.394-5.21 3.814 3.814 0 00-1.395-1.395V5.96zm-8.762 5.27h3.048l3.428 4.196c.381.549 1.273.507 1.524-.115V1.078A.894.894 0 008.19.933l-3.428 4.21H1.714c-.975 0-1.143.176-1.143 1.13v3.813c0 .93.19 1.144 1.143 1.144z" fill="#A9BBBE"/></svg>