<svg width="64" height="17" viewBox="0 0 64 17" fill="none" xmlns="http://www.w3.org/2000/svg"><path d="M5.13 4.434h2.544c1.18 0 2.031.171 2.554.515.528.344.792.887.792 1.63 0 .5-.13.915-.387 1.247-.258.332-.63.541-1.113.627v.059c.601.113 1.043.338 1.324.674.285.332.428.783.428 1.353 0 .77-.27 1.373-.81 1.81-.534.434-1.28.651-2.237.651H5.13V4.434zm1.401 3.539H7.88c.586 0 1.014-.092 1.283-.276.27-.187.404-.504.404-.949 0-.402-.146-.693-.439-.873-.29-.18-.75-.27-1.383-.27H6.531v2.368zm0 1.136v2.713H8.02c.585 0 1.027-.111 1.324-.334.3-.226.45-.582.45-1.066 0-.445-.151-.776-.456-.99-.305-.215-.768-.323-1.389-.323H6.531zm13.237-4.675v5.543c0 .632-.137 1.187-.41 1.664a2.72 2.72 0 01-1.178 1.095c-.512.254-1.125.381-1.84.381-1.063 0-1.889-.281-2.479-.844-.59-.562-.884-1.335-.884-2.32v-5.52h1.406v5.42c0 .707.164 1.229.492 1.565.328.336.832.504 1.512.504 1.32 0 1.98-.694 1.98-2.08V4.434h1.4zm7.13 6.24c0 .761-.275 1.36-.826 1.793-.55.433-1.31.65-2.279.65-.969 0-1.762-.15-2.379-.451v-1.324c.39.183.805.328 1.242.433.442.106.852.159 1.23.159.555 0 .964-.106 1.225-.317.266-.21.399-.494.399-.85 0-.32-.121-.591-.364-.814-.242-.223-.742-.486-1.5-.79-.78-.317-1.332-.679-1.652-1.085-.32-.406-.48-.894-.48-1.465 0-.715.254-1.277.761-1.687.508-.41 1.19-.615 2.045-.615.82 0 1.637.18 2.45.539l-.446 1.142c-.762-.32-1.441-.48-2.039-.48-.453 0-.797.1-1.031.299a.963.963 0 00-.352.779c0 .223.047.414.141.574.094.156.248.305.463.445.215.141.601.327 1.16.557.629.262 1.09.506 1.383.732.293.227.508.483.644.768.137.285.205.621.205 1.008zM28.557 13V4.434h1.4V13h-1.4zm10.804 0h-1.716l-4.213-6.826h-.047l.03.38c.054.727.081 1.391.081 1.993V13h-1.271V4.434h1.699l4.201 6.79h.035c-.008-.09-.023-.415-.047-.978a34.022 34.022 0 01-.035-1.324V4.434h1.283V13zm7.108 0h-4.846V4.434h4.846v1.183h-3.446V7.95h3.229v1.172h-3.229v2.69h3.446V13zm6.797-2.326c0 .761-.276 1.36-.826 1.793-.551.433-1.311.65-2.28.65-.969 0-1.762-.15-2.379-.451v-1.324c.39.183.805.328 1.242.433.442.106.852.159 1.23.159.556 0 .964-.106 1.225-.317a1.03 1.03 0 00.399-.85c0-.32-.121-.591-.363-.814-.242-.223-.742-.486-1.5-.79-.782-.317-1.332-.679-1.653-1.085-.32-.406-.48-.894-.48-1.465 0-.715.254-1.277.762-1.687.507-.41 1.189-.615 2.044-.615.82 0 1.637.18 2.45.539l-.446 1.142c-.761-.32-1.441-.48-2.039-.48-.453 0-.797.1-1.03.299a.963.963 0 00-.352.779c0 .223.046.414.14.574.094.156.248.305.463.445.215.141.602.327 1.16.557.63.262 1.09.506 1.383.732.293.227.508.483.645.768.136.285.205.621.205 1.008zm6.597 0c0 .761-.275 1.36-.826 1.793-.55.433-1.31.65-2.28.65-.968 0-1.76-.15-2.378-.451v-1.324c.39.183.805.328 1.242.433a5.29 5.29 0 001.23.159c.555 0 .964-.106 1.225-.317.266-.21.399-.494.399-.85 0-.32-.122-.591-.364-.814-.242-.223-.742-.486-1.5-.79-.78-.317-1.332-.679-1.652-1.085-.32-.406-.48-.894-.48-1.465 0-.715.253-1.277.761-1.687.508-.41 1.19-.615 2.045-.615.82 0 1.637.18 2.45.539l-.446 1.142c-.762-.32-1.441-.48-2.039-.48-.453 0-.797.1-1.031.299a.963.963 0 00-.352.779c0 .223.047.414.14.574.095.156.249.305.464.445.215.141.601.327 1.16.557.629.262 1.09.506 1.383.732.293.227.508.483.644.768.137.285.205.621.205 1.008z" fill="#A9BBBE"/><rect x=".5" y="1.5" width="63" height="15" rx="3.5" stroke="#A9BBBE"/></svg>