<svg width="214" height="111" viewBox="0 0 214 111" fill="none" xmlns="http://www.w3.org/2000/svg"><g clip-path="url(#clip0)"><path fill-rule="evenodd" clip-rule="evenodd" d="M147.951.177H8.827C3.97.177 0 4.159 0 9.024v38.208h110.133v-.145c0-21.368 16.757-38.81 37.818-39.855V.177z" fill="url(#paint0_linear)"/><path fill-rule="evenodd" clip-rule="evenodd" d="M110.133 46.94H0v38.21c0 4.864 3.97 8.847 8.827 8.847h139.124v-7.055c-21.061-1.046-37.818-18.488-37.818-39.855v-.146z" fill="url(#paint1_linear)"/><path d="M29.335 28.151c0 2.08-.557 3.666-1.643 4.755-1.117 1.088-2.604 1.646-4.467 1.646h-6.947v-21.63h6.607c2.047 0 3.597.529 4.62 1.585 1.024 1.056 1.521 2.486 1.521 4.32 0 .9-.188 1.74-.56 2.518-.401.775-1.086 1.366-2.076 1.831v.157c.525.156.962.405 1.334.715.373.341.681.714.93 1.148.216.438.4.903.525 1.401.096.526.156 1.024.156 1.554zm-3.782-9.199c0-.871-.217-1.554-.685-2.052-.465-.498-1.238-.747-2.264-.747h-2.788v5.658h2.82c1.026 0 1.767-.281 2.232-.81.468-.527.685-1.21.685-2.049zm.308 8.982c0-.903-.216-1.65-.68-2.208-.466-.558-1.21-.84-2.264-.84h-3.101v6.31h3.133c.557 0 1.021-.093 1.394-.25.372-.153.681-.402.898-.715.22-.277.404-.65.496-1.024a5.78 5.78 0 00.124-1.273zm15.85 1.956h-5.986c-.032.188-.124.498-.249.932-.124.437-.248.903-.372 1.4a15.8 15.8 0 00-.373 1.398c-.124.434-.216.747-.28.932h-3.69l6.234-21.63h3.41l6.265 21.63h-3.753L41.71 29.89zm-4.095-7.52l-1.118 4.352h4.403l-1.085-4.32a19.235 19.235 0 00-.185-.932c-.092-.438-.216-.904-.312-1.37-.12-.465-.245-.931-.34-1.369a17.425 17.425 0 01-.185-.9h-.156l-1.022 4.538zm11.226 12.182v-21.63h3.534v18.273h8.34v3.357H48.843zm18.914-18.399v18.399h-3.534V16.153H59.48v-3.232h13.056v3.232h-4.779zm6.947 18.399v-21.63h3.566v21.63h-3.566zm20.003-4.598c-.34 1.522-1.085 2.67-2.235 3.51-1.146.839-2.508 1.276-4.123 1.276-1.117 0-2.079-.188-2.916-.53a5.564 5.564 0 01-2.076-1.461c-.56-.622-.961-1.365-1.241-2.205-.277-.839-.401-1.742-.401-2.706v-8.392c0-.839.124-1.675.4-2.485a6.168 6.168 0 011.242-2.145c.526-.622 1.21-1.12 2.048-1.49.837-.373 1.798-.561 2.944-.561 1.735 0 3.162.465 4.247 1.369a6.358 6.358 0 012.143 3.417l-3.38 1.12a3.112 3.112 0 00-.313-.9 3.492 3.492 0 00-.59-.81 3.738 3.738 0 00-.897-.559c-.34-.156-.745-.217-1.21-.217-.528 0-.993.093-1.365.278a2.918 2.918 0 00-.959.714 3.337 3.337 0 00-.56 1.028 3.523 3.523 0 00-.185 1.117v8.612c0 .466.06.9.185 1.305.124.402.312.776.589 1.085.248.313.557.562.961.718.373.185.806.278 1.334.278.774 0 1.427-.217 1.955-.651.526-.438.866-1.028 1.022-1.803l3.381 1.088zm-66.89 39.208v-9.726h5.674v21.631h-5.085l-2.852-5.284-2.388-4.598h-.156v9.882h-5.705v-21.63h5.116l2.792 4.97 2.448 4.755h.156zm8.774 11.905v-21.63h13.862v4.878h-8v3.265h6.73v4.878h-6.73v3.73h8v4.88H36.591zM64.066 70.25l-1.114 5.284-1.21 5.533h-5.861l-4.034-21.63h5.893c.156 1.305.312 2.61.465 3.915.156 1.305.312 2.61.465 3.915l.56 4.26h.124c.153-.715.31-1.462.465-2.177.156-.714.309-1.43.465-2.144.216-1.305.465-2.61.745-3.887.248-1.273.493-2.578.713-3.883h4.868l1.426 7.863.838 4.132h.124c.092-.683.184-1.366.28-2.049.092-.686.153-1.369.245-2.051l.901-7.895h5.922l-4.03 21.631h-5.89c-.157-.931-.345-1.863-.53-2.798-.216-.9-.404-1.832-.62-2.767l-1.054-5.252h-.156zm29.026 4.228c0 2.144-.681 3.79-2.079 4.971-1.394 1.184-3.285 1.775-5.705 1.775-1.827 0-3.378-.345-4.588-1.028-1.242-.683-2.295-1.646-3.165-2.92l3.91-3.264c.59.808 1.207 1.398 1.86 1.771.62.373 1.27.558 1.922.558.746 0 1.27-.152 1.583-.465.309-.31.465-.683.465-1.149 0-.313-.064-.59-.156-.84a2.102 2.102 0 00-.557-.621 7.105 7.105 0 00-.994-.559 132.19 132.19 0 00-1.49-.562c-.898-.341-1.703-.682-2.416-1.084-.713-.406-1.334-.843-1.799-1.337a4.44 4.44 0 01-1.118-1.679c-.248-.622-.372-1.369-.372-2.208 0-.963.188-1.835.528-2.67a6.253 6.253 0 011.459-2.116c.617-.59 1.362-1.024 2.231-1.366.838-.345 1.8-.498 2.821-.498 1.643 0 3.073.25 4.25.744 1.147.498 2.14 1.308 2.977 2.425l-3.565 3.67c-.59-.687-1.178-1.152-1.8-1.43-.652-.28-1.241-.405-1.77-.405-.465 0-.834.124-1.114.373-.28.249-.436.59-.436.996 0 .466.248.835.745 1.116.497.281 1.302.655 2.42 1.056 1.146.406 2.107.84 2.884 1.305.745.47 1.363.964 1.83 1.494a4.5 4.5 0 01.959 1.77c.188.655.28 1.37.28 2.177z" fill="#FEFEFE"/><path fill-rule="evenodd" clip-rule="evenodd" d="M149.948.017c-25.939 0-46.968 21.072-46.968 47.07 0 25.997 21.029 47.07 46.968 47.07 14.557 0 27.571-6.643 36.186-17.065l-2.015-1.672-3.495-2.898c-7.302 8.837-18.332 14.47-30.676 14.47-21.99 0-39.815-17.866-39.815-39.905 0-22.037 17.825-39.905 39.815-39.905 12.344 0 23.374 5.632 30.676 14.469l3.495-2.898 2.015-1.672C177.519 6.66 164.505.017 149.948.017z" fill="#D60602"/><path d="M125.194 60.909v3.403h3.396v-3.403h-3.396zm23.47 3.403c-.539-1.284-.589-2.514-.589-4.193v-5.327c0-3.598-.887-6.212-3.591-7.346 2.41-1.135 3.541-3.453 3.541-7.002v-2.713c0-5.327-2.412-7.94-8.018-7.94h-8.171v34.52h5.414V50.259h1.87c2.459 0 3.541 1.181 3.541 4.389v5.422c0 2.813.199 3.354.493 4.243h5.51zm-8.806-29.59c1.919 0 2.753 1.085 2.753 3.55v3.403c0 2.762-1.227 3.651-3.246 3.651h-2.115V34.723h2.608zm11.513-4.931v26.285c0 5.522 2.757 8.68 8.068 8.68 5.315 0 8.072-3.158 8.072-8.68V29.791h-5.12v26.63c0 2.464-1.082 3.353-2.803 3.353-1.721 0-2.803-.889-2.803-3.353v-26.63h-5.414zM6.18 109.294h.983l2.544-3.399c.26-.334.469-.633.675-.903h.017c-.025.234-.025.579-.025.921v3.381h1.09v-5.956h-1.072l-2.462 3.265c-.263.352-.48.64-.66.921h-.014c.007-.317.014-.68.014-1.003v-3.183H6.18v5.956zm8.466 0h1.079v-2.574h2.842v2.574h1.092v-5.956h-1.092v2.457h-2.842v-2.457h-1.079v5.956zm10.445.164h1.093v-.814c1.568-.128 2.498-.886 2.498-2.34 0-1.401-.947-2.223-2.498-2.361v-.74h-1.093v.74c-1.55.138-2.505.942-2.505 2.361 0 1.444.926 2.212 2.505 2.34v.814zm0-1.753c-.936-.075-1.405-.526-1.405-1.401 0-.878.504-1.337 1.405-1.43v2.831zm1.093 0v-2.831c.93.1 1.387.58 1.387 1.43 0 .903-.486 1.319-1.387 1.401zm8.167 1.678c1.732 0 2.991-1.219 2.991-3.044 0-1.799-1.234-3.054-2.99-3.054-1.76 0-2.995 1.248-2.995 3.054 0 1.825 1.245 3.044 2.994 3.044zm0-.91c-1.1 0-1.841-.786-1.841-2.134 0-1.354.742-2.14 1.841-2.14 1.125 0 1.838.821 1.838 2.14 0 1.348-.748 2.134-1.838 2.134zm5.919.821h1.082v-2.051h.255c.532 0 .937-.082 1.263-.207.838-.345 1.136-1.059 1.136-1.746 0-.814-.352-1.39-.965-1.699-.352-.171-.785-.253-1.334-.253h-1.438v5.956zm1.082-2.937v-2.133h.308c.323 0 .568.053.738.153.316.192.472.526.472.913 0 .445-.163.768-.496.932-.174.089-.409.135-.696.135h-.326zm5.535 2.937h1.082v-3.388c0-.207 0-.516-.01-.751h.017c.12.228.28.434.408.615l1.298 1.871h.497l1.171-1.824c.11-.164.326-.498.404-.672h.022c-.022.238-.022.544-.022.789v3.36h1.093v-5.956h-.993l-1.423 2.216c-.21.316-.362.576-.486.803h-.021a12.91 12.91 0 00-.493-.768l-1.561-2.251h-.983v5.956zm8.49 0h1.128l.557-1.49h2.122l.575 1.49h1.174l-2.391-5.984h-.866l-2.299 5.984zm2.001-2.375l.433-1.177c.163-.459.252-.722.309-.932h.017c.053.199.135.473.298.925l.415 1.184h-1.472zm6.085 2.375h4.435v1.689h1.057v-2.62h-.795v-5.025h-1.082v5.025h-2.526v-5.025h-1.09v5.956zm8.21 0h.983l2.543-3.399c.263-.334.469-.633.678-.903h.018c-.028.234-.028.579-.028.921v3.381h1.092v-5.956h-1.075l-2.462 3.265c-.259.352-.475.64-.656.921h-.018c.007-.317.018-.68.018-1.003v-3.183h-1.093v5.956zm11.207.089c1.729 0 2.992-1.219 2.992-3.044 0-1.799-1.235-3.054-2.991-3.054-1.76 0-2.995 1.248-2.995 3.054 0 1.825 1.242 3.044 2.995 3.044zm0-.91c-1.103 0-1.84-.786-1.84-2.134 0-1.354.737-2.14 1.84-2.14 1.125 0 1.839.821 1.839 2.14 0 1.348-.75 2.134-1.838 2.134zm5.919.821h1.082v-2.574h2.842v2.574h1.093v-5.956h-1.093v2.457H89.88v-2.457h-1.082v5.956zm8.196 0h1.082v-2.574h2.838v2.574h1.093v-5.956h-1.093v2.457h-2.838v-2.457h-1.082v5.956zm10.931.089c1.731 0 2.994-1.219 2.994-3.044 0-1.799-1.234-3.054-2.994-3.054-1.756 0-2.991 1.248-2.991 3.054 0 1.825 1.242 3.044 2.991 3.044zm0-.91c-1.1 0-1.838-.786-1.838-2.134 0-1.354.738-2.14 1.838-2.14 1.128 0 1.841.821 1.841 2.14 0 1.348-.748 2.134-1.841 2.134zm5.922.821h3.292v-.921h-2.21v-1.635h1.905v-.921h-1.905v-1.558h1.905l.295-.921h-3.282v5.956zm9.519 0h1.128l.557-1.49h2.122l.574 1.49h1.175l-2.392-5.984h-.865l-2.299 5.984zm2.001-2.375l.433-1.177c.163-.459.255-.722.308-.932h.018c.053.199.135.473.298.925l.415 1.184h-1.472zm6.085 2.375h1.089v-5.035h1.983l.298-.921h-3.37v5.956zm5.847 0h3.292v-.921h-2.21v-1.635h1.905v-.921h-1.905v-1.558h1.905l.295-.921H137.3v5.956zm6.273 0h1.082v-2.574h2.842v2.574h1.089v-5.956h-1.089v2.457h-2.842v-2.457h-1.082v5.956zm9.331 0h1.082v-5.035h1.586l.298-.921h-4.698v.921h1.732v5.035zm9.817-1.237c-.426.245-.876.416-1.462.416-1.217 0-1.976-.868-1.976-2.116 0-1.166.695-2.158 2.012-2.158.578 0 1.075.142 1.532.387v-1.013c-.369-.164-.911-.288-1.557-.288-1.913 0-3.14 1.372-3.14 3.101 0 1.742 1.054 2.997 3.001 2.997.597 0 1.228-.106 1.888-.469l-.298-.857zm4.151 1.237h1.082v-5.035h1.59l.298-.921h-4.701v.921h1.731v5.035zm5.446 0h1.902c1.38 0 2.083-.839 2.083-1.763 0-.694-.426-1.263-1.118-1.437v-.018c.468-.234.72-.714.72-1.227 0-.778-.578-1.511-1.848-1.511h-1.739v5.956zm1.079-.896v-1.678h.812c.604 0 .994.306.994.811 0 .608-.39.867-1.111.867h-.695zm0-2.574v-1.59h.507c.65 0 .93.352.93.793 0 .463-.316.797-.923.797h-.514zm8.512 3.559c1.731 0 2.994-1.219 2.994-3.044 0-1.799-1.238-3.054-2.994-3.054-1.76 0-2.995 1.248-2.995 3.054 0 1.825 1.245 3.044 2.995 3.044zm0-.91c-1.1 0-1.842-.786-1.842-2.134 0-1.354.742-2.14 1.842-2.14 1.124 0 1.837.821 1.837 2.14 0 1.348-.748 2.134-1.837 2.134z" fill="#003838"/><path fill-rule="evenodd" clip-rule="evenodd" d="M173.83 33.955l4.981-4.129a26.557 26.557 0 016.095 16.973c0 6.45-2.288 12.364-6.095 16.972l-4.981-4.128a20.076 20.076 0 004.616-12.844 20.08 20.08 0 00-4.616-12.844zm10.175-8.439l5.542-4.594a40.49 40.49 0 019.292 25.877 40.49 40.49 0 01-9.292 25.876l-5.542-4.594a33.288 33.288 0 007.646-21.282c0-8.087-2.87-15.504-7.646-21.283zm10.634-8.815l4.136-3.431 2.385-1.974a55.57 55.57 0 0112.751 35.503A55.562 55.562 0 01201.16 82.3l-2.385-1.973-4.136-3.432a47.092 47.092 0 0010.81-30.097 47.092 47.092 0 00-10.81-30.098z" fill="#CAD4D4" stroke="#CAD4D4" stroke-width=".497" stroke-miterlimit="22.926"/></g><defs><linearGradient id="paint0_linear" x1="-6.816" y1="38.922" x2="108.526" y2="38.922" gradientUnits="userSpaceOnUse"><stop stop-color="#FF1104"/><stop offset="1" stop-color="#D60602"/></linearGradient><linearGradient id="paint1_linear" x1="3.562" y1="74.282" x2="114.625" y2="74.282" gradientUnits="userSpaceOnUse"><stop stop-color="#006A6A"/><stop offset="1" stop-color="#003838"/></linearGradient><clipPath id="clip0"><path fill="#fff" d="M0 0h214v111H0z"/></clipPath></defs></svg>