<svg width="32" height="32" viewBox="0 0 32 32" fill="none" xmlns="http://www.w3.org/2000/svg"><circle cx="16" cy="16" r="16" fill="#F7931E"/><path d="M15.518 19.678c-1.395-.145-2.653-.489-3.73-1.331-.134-.105-.272-.206-.394-.323-.472-.453-.52-.972-.146-1.506.32-.457.855-.58 1.412-.317.108.05.21.114.309.183 2.007 1.379 4.765 1.417 6.78.062.2-.154.413-.278.66-.342.482-.123.93.053 1.188.474.295.48.291.95-.072 1.323-.557.572-1.228.985-1.972 1.274-.704.273-1.476.41-2.239.502.115.125.17.187.242.26 1.036 1.04 2.077 2.078 3.11 3.122.352.356.426.797.232 1.211-.212.453-.686.75-1.151.719-.295-.02-.525-.167-.73-.373-.781-.787-1.578-1.56-2.344-2.362-.223-.233-.33-.189-.527.014a154.64 154.64 0 01-2.392 2.4c-.36.357-.79.42-1.21.217-.445-.216-.728-.67-.706-1.127.015-.309.167-.545.379-.756 1.026-1.025 2.048-2.052 3.072-3.078.068-.068.13-.14.23-.245z" fill="#fff"/><path d="M16.368 16.111c-2.49-.009-4.53-2.072-4.516-4.566A4.563 4.563 0 0116.423 7c2.519.007 4.54 2.068 4.528 4.615-.013 2.488-2.068 4.505-4.583 4.496zm2.263-4.56a2.219 2.219 0 00-2.226-2.224 2.222 2.222 0 00-2.231 2.251 2.219 2.219 0 002.242 2.208 2.214 2.214 0 002.215-2.235z" fill="#fff"/></svg>