<svg width="16" height="16" viewBox="0 0 16 16" fill="none" xmlns="http://www.w3.org/2000/svg">
<path d="M7.99954 10.1334C9.17775 10.1334 10.1329 9.17824 10.1329 8.00003C10.1329 6.82182 9.17775 5.8667 7.99954 5.8667C6.82134 5.8667 5.86621 6.82182 5.86621 8.00003C5.86621 9.17824 6.82134 10.1334 7.99954 10.1334Z" fill="#A9BBBE"/>
<path d="M5.99967 1.33331L4.77967 2.66665H2.66634C1.93301 2.66665 1.33301 3.26665 1.33301 3.99998V12C1.33301 12.7333 1.93301 13.3333 2.66634 13.3333H13.333C14.0663 13.3333 14.6663 12.7333 14.6663 12V3.99998C14.6663 3.26665 14.0663 2.66665 13.333 2.66665H11.2197L9.99967 1.33331H5.99967ZM7.99967 11.3333C6.15967 11.3333 4.66634 9.83998 4.66634 7.99998C4.66634 6.15998 6.15967 4.66665 7.99967 4.66665C9.83967 4.66665 11.333 6.15998 11.333 7.99998C11.333 9.83998 9.83967 11.3333 7.99967 11.3333Z" fill="#A9BBBE"/>
</svg>
