<svg width="214" height="111" viewBox="0 0 214 111" fill="none" xmlns="http://www.w3.org/2000/svg">
<g clip-path="url(#clip0)">
<path fill-rule="evenodd" clip-rule="evenodd" d="M147.951 0.176544H8.82738C3.97019 0.176544 0 4.15921 0 9.02375V47.2324H110.133V47.0866C110.133 25.7189 126.89 8.277 147.951 7.23155V0.176544Z" fill="url(#paint0_linear)"/>
<path fill-rule="evenodd" clip-rule="evenodd" d="M110.133 46.9408H0V85.1495C0 90.014 3.97019 93.9967 8.82738 93.9967H147.951V86.9417C126.89 85.8963 110.133 68.4543 110.133 47.0866V46.9408Z" fill="url(#paint1_linear)"/>
<path d="M29.3349 28.1512C29.3349 30.2314 28.7779 31.8174 27.6922 32.9055C26.5746 33.9936 25.088 34.5519 23.2253 34.5519H16.2783V12.9211H22.8847C24.9318 12.9211 26.4823 13.4509 27.5041 14.507C28.5295 15.5631 29.0262 16.9926 29.0262 18.8275C29.0262 19.7272 28.8382 20.5664 28.4656 21.3451C28.0647 22.1203 27.3799 22.7106 26.3901 23.1764V23.3329C26.9152 23.4893 27.3516 23.7383 27.7241 24.0476C28.0966 24.389 28.4053 24.7624 28.6537 25.1962C28.8701 25.6336 29.0546 26.0994 29.1788 26.5972C29.2746 27.1235 29.3349 27.6214 29.3349 28.1512ZM25.5527 18.952C25.5527 18.0807 25.3363 17.398 24.868 16.9002C24.4032 16.4023 23.6297 16.1534 22.6044 16.1534H19.8157V21.8109H22.6363C23.6617 21.8109 24.4032 21.53 24.868 21.0002C25.3363 20.4739 25.5527 19.7912 25.5527 18.952ZM25.8614 27.9343C25.8614 27.0311 25.645 26.2843 25.1802 25.726C24.7154 25.1678 23.9703 24.8868 22.9166 24.8868H19.8157V31.1951H22.9485C23.5056 31.1951 23.9703 31.1026 24.3429 30.9462C24.7154 30.7933 25.0241 30.5444 25.2405 30.2314C25.4605 29.9541 25.645 29.5807 25.7372 29.2073C25.8295 28.8019 25.8614 28.3681 25.8614 27.9343ZM41.7102 29.8901H35.7248C35.6929 30.0785 35.6006 30.3879 35.4764 30.8217C35.3523 31.2591 35.2281 31.7249 35.1039 32.2228C34.9478 32.7206 34.8236 33.1864 34.7314 33.6203C34.6072 34.0541 34.5149 34.367 34.4511 34.5519H30.7612L36.995 12.9211H40.4046L46.6703 34.5519H42.9166L41.7102 29.8901ZM37.6159 22.3692L36.4983 26.7217H40.9013L39.8156 22.4012C39.7872 22.2128 39.7234 21.9034 39.6311 21.4696C39.5389 21.0322 39.4147 20.5664 39.3189 20.1005C39.1983 19.6347 39.0741 19.1689 38.9783 18.7315C38.886 18.3297 38.8257 18.0167 38.7938 17.8318H38.6377L37.6159 22.3692ZM48.8417 34.5519V12.9211H52.3755V31.1951H60.7168V34.5519H48.8417Z" fill="#FEFEFE"/>
<path d="M67.756 16.1534V34.5519H64.2222V16.1534H59.4785V12.9211H72.5351V16.1534H67.756ZM74.7029 34.5519V12.9211H78.2686V34.5519H74.7029ZM94.7064 29.9541C94.3658 31.476 93.6207 32.6246 92.4712 33.4638C91.3252 34.303 89.9628 34.7404 88.3484 34.7404C87.2308 34.7404 86.2693 34.5519 85.432 34.2105C84.5947 33.8692 83.9135 33.3713 83.3564 32.749C82.7958 32.1268 82.3949 31.3836 82.1146 30.5444C81.8379 29.7051 81.7137 28.8019 81.7137 27.8383V19.4462C81.7137 18.607 81.8379 17.7714 82.1146 16.9606C82.3949 16.1534 82.7958 15.4387 83.3564 14.8164C83.8815 14.1941 84.5663 13.6963 85.4036 13.3264C86.2409 12.9531 87.2024 12.7646 88.3484 12.7646C90.0834 12.7646 91.5097 13.2304 92.5954 14.1336C93.681 15.0333 94.3942 16.1854 94.7383 17.5509L91.3571 18.671C91.2933 18.3617 91.201 18.0487 91.0449 17.7714C90.8923 17.4905 90.7043 17.2095 90.4559 16.9606C90.2076 16.7437 89.8989 16.5588 89.5583 16.4023C89.2177 16.2459 88.8132 16.1854 88.3484 16.1854C87.8198 16.1854 87.355 16.2779 86.9825 16.4628C86.5815 16.6513 86.2693 16.9002 86.0245 17.1775C85.7761 17.4905 85.5881 17.8318 85.4639 18.2052C85.3397 18.5786 85.2794 18.952 85.2794 19.3218V27.9343C85.2794 28.4001 85.3397 28.8339 85.4639 29.2393C85.5881 29.6411 85.7761 30.0145 86.0529 30.3239C86.3012 30.6368 86.6099 30.8857 87.0144 31.0422C87.3869 31.2271 87.8198 31.3196 88.3484 31.3196C89.1219 31.3196 89.7747 31.1026 90.3034 30.6688C90.8285 30.2314 91.1691 29.6411 91.3252 28.8659L94.7064 29.9541Z" fill="#FEFEFE"/>
<path d="M27.8164 69.162V59.4364H33.4896V81.0673H28.4053L25.5528 75.7831L23.165 71.1853H23.0089V81.0673H17.3037V59.4364H22.4199L25.2122 64.4077L27.6603 69.162H27.8164ZM36.5905 81.0673V59.4364H50.4525V64.3152H42.4518V67.5796H49.1823V72.4583H42.4518V76.1885H50.4525V81.0673H36.5905ZM64.0661 70.2501L62.952 75.5342L61.7422 81.0673H55.8809L51.8469 59.4364H57.7401C57.8962 60.7415 58.0523 62.0465 58.2048 63.3515C58.3609 64.6566 58.5171 65.9616 58.6696 67.2666L59.2302 71.5267H59.3544C59.5069 70.8119 59.6631 70.0652 59.8192 69.3504C59.9753 68.6357 60.1278 67.9209 60.284 67.2062C60.5004 65.9012 60.7487 64.5961 61.029 63.3195C61.2774 62.0465 61.5222 60.7415 61.7422 59.4364H66.61L68.0363 67.2987L68.8736 71.4307H68.9978C69.09 70.7479 69.1823 70.0652 69.2781 69.3824C69.3703 68.6961 69.4306 68.0134 69.5229 67.3307L70.4241 59.4364H76.3457L72.3152 81.0673H66.4255C66.2694 80.1356 66.0814 79.204 65.8969 78.2688C65.6804 77.3691 65.4924 76.4374 65.276 75.5022L64.2222 70.2501H64.0661ZM93.0921 74.4781C93.0921 76.6223 92.4109 78.2688 91.013 79.4493C89.6187 80.6335 87.7276 81.2237 85.3079 81.2237C83.4807 81.2237 81.9302 80.8788 80.7203 80.1961C79.4785 79.5133 78.4248 78.5497 77.5555 77.2766L81.4654 74.0123C82.0544 74.8195 82.6717 75.4098 83.3245 75.7831C83.9454 76.1565 84.5947 76.3414 85.2475 76.3414C85.9926 76.3414 86.5177 76.1885 86.8299 75.8756C87.1386 75.5662 87.2947 75.1929 87.2947 74.727C87.2947 74.4141 87.2309 74.1367 87.1386 73.8878C87.0144 73.6709 86.8299 73.454 86.5816 73.2655C86.3013 73.0806 85.9926 72.8922 85.5882 72.7072C85.1837 72.5508 84.6905 72.3659 84.098 72.1454C83.2004 71.804 82.395 71.4627 81.6818 71.0608C80.9687 70.6555 80.3478 70.2181 79.883 69.7238C79.3863 69.258 79.0137 68.6961 78.7654 68.0454C78.517 67.4231 78.3928 66.6764 78.3928 65.8372C78.3928 64.8735 78.5809 64.0023 78.9215 63.1666C79.2621 62.3559 79.7588 61.6411 80.3797 61.0508C80.9971 60.4606 81.7421 60.0267 82.6114 59.6854C83.4487 59.3404 84.4102 59.1875 85.432 59.1875C87.0748 59.1875 88.5046 59.4364 89.6825 59.9307C90.8285 60.4286 91.822 61.2393 92.6593 62.3559L89.0936 66.0256C88.5046 65.3393 87.9156 64.8735 87.2947 64.5961C86.6419 64.3152 86.0529 64.1908 85.5243 64.1908C85.0595 64.1908 84.6905 64.3152 84.4102 64.5641C84.1299 64.813 83.9738 65.1544 83.9738 65.5598C83.9738 66.0256 84.2222 66.3954 84.7189 66.6764C85.2156 66.9573 86.021 67.3307 87.1386 67.7325C88.2846 68.1379 89.2461 68.5717 90.0231 69.0375C90.7682 69.5069 91.3856 70.0012 91.8539 70.531C92.3187 71.0608 92.6273 71.6511 92.8118 72.3019C92.9999 72.9562 93.0921 73.6709 93.0921 74.4781Z" fill="#FEFEFE"/>
<path fill-rule="evenodd" clip-rule="evenodd" d="M149.948 0.0165253C124.009 0.0165253 102.98 21.0891 102.98 47.0866C102.98 73.0842 124.009 94.1567 149.948 94.1567C164.505 94.1567 177.519 87.5142 186.134 77.0917L184.119 75.4204L180.624 72.5223C173.322 81.3589 162.292 86.9915 149.948 86.9915C127.958 86.9915 110.133 69.1264 110.133 47.0866C110.133 25.0504 127.958 7.18176 149.948 7.18176C162.292 7.18176 173.322 12.8144 180.624 21.6509L184.119 18.7528L186.134 17.0815C177.519 6.65904 164.505 0.0165253 149.948 0.0165253Z" fill="#D60602"/>
<path d="M125.194 60.9086V64.3116H128.59V60.9086H125.194Z" fill="#003838"/>
<path d="M148.664 64.3116C148.125 63.0279 148.075 61.7976 148.075 60.1192V54.7924C148.075 51.1937 147.188 48.5801 144.484 47.4458C146.894 46.3114 148.025 43.9929 148.025 40.4441V37.7309C148.025 32.4041 145.613 29.7905 140.007 29.7905H131.836V64.3116H137.25V50.2585H139.12C141.579 50.2585 142.661 51.4391 142.661 54.6466V60.0694C142.661 62.8821 142.86 63.4226 143.154 64.3116H148.664ZM139.858 34.7226C141.777 34.7226 142.611 35.8072 142.611 38.2714V41.6745C142.611 44.4374 141.384 45.3264 139.365 45.3264H137.25V34.7226H139.858ZM151.371 29.7905V56.0761C151.371 61.5984 154.128 64.7561 159.439 64.7561C164.754 64.7561 167.511 61.5984 167.511 56.0761V29.7905H162.391V56.421C162.391 58.8853 161.309 59.7742 159.588 59.7742C157.867 59.7742 156.785 58.8853 156.785 56.421V29.7905H151.371Z" fill="#003838"/>
<path d="M6.18066 109.294H7.16345L9.70736 105.895C9.96636 105.561 10.1757 105.262 10.3815 104.992H10.3992C10.3744 105.226 10.3744 105.571 10.3744 105.913V109.294H11.4636V103.338H10.3921L7.92982 106.603C7.66727 106.955 7.45084 107.243 7.26989 107.524H7.2557C7.2628 107.207 7.26989 106.844 7.26989 106.521V103.338H6.18066V109.294Z" fill="#003838"/>
<path d="M14.646 109.294H15.7246V106.72H18.5665V109.294H19.6593V103.338H18.5665V105.795H15.7246V103.338H14.646V109.294Z" fill="#003838"/>
<path d="M25.0913 109.458H26.1841V108.644C27.7523 108.516 28.6819 107.758 28.6819 106.304C28.6819 104.903 27.7345 104.081 26.1841 103.943V103.203H25.0913V103.943C23.5408 104.081 22.5864 104.885 22.5864 106.304C22.5864 107.748 23.5124 108.516 25.0913 108.644V109.458ZM25.0913 107.705C24.1546 107.63 23.6863 107.179 23.6863 106.304C23.6863 105.426 24.1901 104.967 25.0913 104.874V107.705ZM26.1841 107.705V104.874C27.1137 104.974 27.5713 105.454 27.5713 106.304C27.5713 107.207 27.0853 107.623 26.1841 107.705Z" fill="#003838"/>
<path d="M34.3514 109.383C36.0828 109.383 37.3424 108.164 37.3424 106.339C37.3424 104.54 36.1077 103.285 34.3514 103.285C32.5916 103.285 31.3569 104.533 31.3569 106.339C31.3569 108.164 32.6023 109.383 34.3514 109.383ZM34.3514 108.473C33.2516 108.473 32.51 107.687 32.51 106.339C32.51 104.985 33.2516 104.199 34.3514 104.199C35.4761 104.199 36.1893 105.02 36.1893 106.339C36.1893 107.687 35.4407 108.473 34.3514 108.473Z" fill="#003838"/>
<path d="M40.2695 109.294H41.3517V107.243H41.6071C42.1393 107.243 42.5438 107.161 42.8702 107.036C43.7075 106.691 44.0056 105.977 44.0056 105.29C44.0056 104.476 43.6543 103.9 43.0405 103.591C42.6893 103.42 42.2564 103.338 41.7065 103.338H40.2695V109.294ZM41.3517 106.357V104.224H41.6603C41.9832 104.224 42.228 104.277 42.3983 104.377C42.7141 104.569 42.8702 104.903 42.8702 105.29C42.8702 105.735 42.707 106.058 42.3735 106.222C42.1996 106.311 41.9655 106.357 41.6781 106.357H41.3517Z" fill="#003838"/>
<path d="M46.8867 109.294H47.9689V105.906C47.9689 105.699 47.9689 105.39 47.9582 105.155H47.9759C48.0966 105.383 48.2562 105.589 48.384 105.77L49.6825 107.641H50.1792L51.3501 105.817C51.4601 105.653 51.6765 105.319 51.7545 105.145H51.7758C51.7545 105.383 51.7545 105.689 51.7545 105.934V109.294H52.8473V103.338H51.8539L50.4312 105.554C50.2218 105.87 50.0693 106.13 49.9451 106.357H49.9238C49.789 106.122 49.6364 105.895 49.4306 105.589L47.8695 103.338H46.8867V109.294Z" fill="#003838"/>
<path d="M55.377 109.294H56.5052L57.0622 107.804H59.1839L59.7587 109.294H60.9331L58.5418 103.31H57.676L55.377 109.294ZM57.378 106.919L57.8109 105.742C57.9741 105.283 58.0628 105.02 58.1195 104.81H58.1373C58.1905 105.009 58.2721 105.283 58.4353 105.735L58.8504 106.919H57.378Z" fill="#003838"/>
<path d="M63.4629 109.294H67.8979V110.983H68.9552V108.363H68.1604V103.338H67.0783V108.363H64.5521V103.338H63.4629V109.294Z" fill="#003838"/>
<path d="M71.6729 109.294H72.6556L75.1995 105.895C75.4621 105.561 75.6679 105.262 75.8772 104.992H75.8949C75.8666 105.226 75.8666 105.571 75.8666 105.913V109.294H76.9593V103.338H75.8843L73.422 106.603C73.163 106.955 72.9466 107.243 72.7656 107.524H72.7479C72.755 107.207 72.7656 106.844 72.7656 106.521V103.338H71.6729V109.294Z" fill="#003838"/>
<path d="M82.8807 109.383C84.6086 109.383 85.8717 108.164 85.8717 106.339C85.8717 104.54 84.637 103.285 82.8807 103.285C81.1209 103.285 79.8862 104.533 79.8862 106.339C79.8862 108.164 81.128 109.383 82.8807 109.383ZM82.8807 108.473C81.7773 108.473 81.0393 107.687 81.0393 106.339C81.0393 104.985 81.7773 104.199 82.8807 104.199C84.0054 104.199 84.7186 105.02 84.7186 106.339C84.7186 107.687 83.9699 108.473 82.8807 108.473Z" fill="#003838"/>
<path d="M88.7988 109.294H89.881V106.72H92.7229V109.294H93.8157V103.338H92.7229V105.795H89.881V103.338H88.7988V109.294Z" fill="#003838"/>
<path d="M96.9946 109.294H98.0768V106.72H100.915V109.294H102.008V103.338H100.915V105.795H98.0768V103.338H96.9946V109.294Z" fill="#003838"/>
<path d="M107.926 109.383C109.657 109.383 110.92 108.164 110.92 106.339C110.92 104.54 109.686 103.285 107.926 103.285C106.17 103.285 104.935 104.533 104.935 106.339C104.935 108.164 106.177 109.383 107.926 109.383ZM107.926 108.473C106.826 108.473 106.088 107.687 106.088 106.339C106.088 104.985 106.826 104.199 107.926 104.199C109.054 104.199 109.767 105.02 109.767 106.339C109.767 107.687 109.019 108.473 107.926 108.473Z" fill="#003838"/>
<path d="M113.848 109.294H117.14V108.373H114.93V106.738H116.835V105.817H114.93V104.259H116.835L117.13 103.338H113.848V109.294Z" fill="#003838"/>
<path d="M123.367 109.294H124.495L125.052 107.804H127.174L127.748 109.294H128.923L126.531 103.31H125.666L123.367 109.294ZM125.368 106.919L125.801 105.742C125.964 105.283 126.056 105.02 126.109 104.81H126.127C126.18 105.009 126.262 105.283 126.425 105.735L126.84 106.919H125.368Z" fill="#003838"/>
<path d="M131.453 109.294H132.542V104.259H134.525L134.823 103.338H131.453V109.294Z" fill="#003838"/>
<path d="M137.3 109.294H140.592V108.373H138.382V106.738H140.287V105.817H138.382V104.259H140.287L140.582 103.338H137.3V109.294Z" fill="#003838"/>
<path d="M143.573 109.294H144.655V106.72H147.497V109.294H148.586V103.338H147.497V105.795H144.655V103.338H143.573V109.294Z" fill="#003838"/>
<path d="M152.904 109.294H153.986V104.259H155.572L155.87 103.338H151.172V104.259H152.904V109.294Z" fill="#003838"/>
<path d="M162.721 108.057C162.295 108.302 161.845 108.473 161.259 108.473C160.042 108.473 159.283 107.605 159.283 106.357C159.283 105.191 159.978 104.199 161.295 104.199C161.873 104.199 162.37 104.341 162.827 104.586V103.573C162.458 103.409 161.916 103.285 161.27 103.285C159.357 103.285 158.13 104.657 158.13 106.386C158.13 108.128 159.184 109.383 161.131 109.383C161.728 109.383 162.359 109.277 163.019 108.914L162.721 108.057Z" fill="#003838"/>
<path d="M166.872 109.294H167.954V104.259H169.544L169.842 103.338H165.141V104.259H166.872V109.294Z" fill="#003838"/>
<path d="M172.318 109.294H174.22C175.6 109.294 176.303 108.455 176.303 107.531C176.303 106.837 175.877 106.268 175.185 106.094V106.076C175.653 105.842 175.905 105.362 175.905 104.849C175.905 104.071 175.327 103.338 174.057 103.338H172.318V109.294ZM173.397 108.398V106.72H174.209C174.813 106.72 175.203 107.026 175.203 107.531C175.203 108.139 174.813 108.398 174.092 108.398H173.397ZM173.397 105.824V104.234H173.904C174.554 104.234 174.834 104.586 174.834 105.027C174.834 105.49 174.518 105.824 173.911 105.824H173.397Z" fill="#003838"/>
<path d="M181.909 109.383C183.64 109.383 184.903 108.164 184.903 106.339C184.903 104.54 183.665 103.285 181.909 103.285C180.149 103.285 178.914 104.533 178.914 106.339C178.914 108.164 180.159 109.383 181.909 109.383ZM181.909 108.473C180.809 108.473 180.067 107.687 180.067 106.339C180.067 104.985 180.809 104.199 181.909 104.199C183.033 104.199 183.746 105.02 183.746 106.339C183.746 107.687 182.998 108.473 181.909 108.473Z" fill="#003838"/>
<path fill-rule="evenodd" clip-rule="evenodd" d="M173.83 33.9545L178.811 29.8261C182.618 34.4346 184.906 40.3481 184.906 46.7986C184.906 53.2491 182.618 59.1626 178.811 63.7711L173.83 59.6427C176.714 56.1579 178.446 51.6809 178.446 46.7986C178.446 41.9163 176.714 37.4429 173.83 33.9545ZM184.005 25.5162L189.547 20.922C195.352 27.9485 198.839 36.9664 198.839 46.7986C198.839 56.6308 195.352 65.6487 189.547 72.6752L184.005 68.081C188.781 62.3025 191.651 54.8884 191.651 46.7986C191.651 38.7124 188.781 31.2947 184.005 25.5162ZM194.639 16.701L198.775 13.2696L201.16 11.296C209.121 20.9362 213.911 33.3073 213.911 46.7986C213.911 60.2934 209.121 72.661 201.16 82.3012L198.775 80.3277L194.639 76.8962C201.39 68.7246 205.449 58.2381 205.449 46.7986C205.449 35.3591 201.39 24.8726 194.639 16.701Z" fill="#CAD4D4" stroke="#CAD4D4" stroke-width="0.496551" stroke-miterlimit="22.9256"/>
</g>
<defs>
<linearGradient id="paint0_linear" x1="-6.81567" y1="38.9222" x2="108.526" y2="38.9222" gradientUnits="userSpaceOnUse">
<stop stop-color="#FF1104"/>
<stop offset="1" stop-color="#D60602"/>
</linearGradient>
<linearGradient id="paint1_linear" x1="3.56217" y1="74.2825" x2="114.625" y2="74.2825" gradientUnits="userSpaceOnUse">
<stop stop-color="#006A6A"/>
<stop offset="1" stop-color="#003838"/>
</linearGradient>
<clipPath id="clip0">
<rect width="214" height="111" fill="white"/>
</clipPath>
</defs>
</svg>
