<svg width="16" height="16" viewBox="0 0 16 16" fill="none" xmlns="http://www.w3.org/2000/svg">
<path fill-rule="evenodd" clip-rule="evenodd" d="M9.99967 6.43267L13.7637 5.008C13.8646 4.96979 13.9733 4.95666 14.0805 4.96975C14.1876 4.98283 14.29 5.02173 14.3788 5.08311C14.4676 5.14448 14.5401 5.2265 14.5902 5.32211C14.6403 5.41772 14.6664 5.52406 14.6663 5.632V10.3713C14.6663 10.479 14.6402 10.5851 14.5902 10.6805C14.5402 10.7759 14.4679 10.8578 14.3793 10.9191C14.2908 10.9804 14.1888 11.0194 14.0819 11.0327C13.975 11.0459 13.8665 11.0331 13.7657 10.9953L9.99967 9.58333V10.6667C9.99967 11.0203 9.8592 11.3594 9.60915 11.6095C9.3591 11.8595 9.01996 12 8.66634 12H2.66634C2.31272 12 1.97358 11.8595 1.72353 11.6095C1.47348 11.3594 1.33301 11.0203 1.33301 10.6667V5.33333C1.33301 4.97971 1.47348 4.64057 1.72353 4.39052C1.97358 4.14048 2.31272 4 2.66634 4H8.66634C9.01996 4 9.3591 4.14048 9.60915 4.39052C9.8592 4.64057 9.99967 4.97971 9.99967 5.33333V6.43267Z" fill="#A9BBBE"/>
</svg>
