<svg width="12" height="14" viewBox="0 0 12 14" fill="none" xmlns="http://www.w3.org/2000/svg">
<path d="M5.5 5.75V0H0.875C0.775544 0 0.680161 0.0395088 0.609835 0.109835C0.539509 0.180161 0.5 0.275544 0.5 0.375V13.625C0.5 13.7245 0.539509 13.8198 0.609835 13.8902C0.680161 13.9605 0.775544 14 0.875 14H11.125C11.2245 14 11.3198 13.9605 11.3902 13.8902C11.4605 13.8198 11.5 13.7245 11.5 13.625V6H5.75C5.6837 6 5.62011 5.97366 5.57322 5.92678C5.52634 5.87989 5.5 5.8163 5.5 5.75Z" fill="#A9BBBE"/>
<path d="M6.5 0.302814V4.875C6.5 4.90815 6.51317 4.93995 6.53661 4.96339C6.56005 4.98683 6.59185 5 6.625 5H11.1972C11.2095 5.00001 11.2216 4.99636 11.2319 4.98952C11.2422 4.98267 11.2502 4.97293 11.2549 4.96153C11.2597 4.95013 11.2609 4.93758 11.2586 4.92546C11.2562 4.91334 11.2503 4.9022 11.2416 4.89344L6.60656 0.258439C6.5978 0.249733 6.58666 0.243816 6.57454 0.241436C6.56243 0.239057 6.54987 0.24032 6.53847 0.245068C6.52707 0.249815 6.51733 0.257834 6.51049 0.268111C6.50364 0.278389 6.49999 0.290465 6.5 0.302814Z" fill="#A9BBBE"/>
</svg>
