<?xml version="1.0" encoding="utf-8"?><svg width="30" height="30" fill="none" xmlns="http://www.w3.org/2000/svg" viewBox="0 0 30 30"><circle cx="15" cy="15" r="15" fill="#006A6A"/><path d="M24 14.948c0-.04 0-.087-.002-.14-.002-.15-.006-.318-.01-.497a26.637 26.637 0 00-.084-1.512c-.058-.667-.143-1.223-.258-1.64a2.554 2.554 0 00-.693-1.152 2.714 2.714 0 00-1.2-.667c-.545-.14-1.611-.228-3.113-.281a94.456 94.456 0 00-2.243-.052c-.267-.004-.516-.005-.739-.007h-.566c-.223.002-.472.003-.74.007-.764.01-1.528.026-2.242.052-1.502.055-2.57.142-3.113.28a2.711 2.711 0 00-1.2.667c-.332.32-.571.717-.693 1.153-.117.417-.2.973-.258 1.64-.042.483-.069.997-.084 1.512-.006.18-.008.347-.01.497l-.002.14v.104c0 .04 0 .086.002.14.002.15.006.317.01.497.015.515.042 1.028.084 1.512.058.667.143 1.223.258 1.64.247.884.97 1.583 1.893 1.819.543.14 1.611.227 3.113.28.714.026 1.478.043 2.243.052.267.004.516.006.739.008h.566c.223-.002.472-.004.74-.008.764-.009 1.528-.026 2.242-.051 1.502-.056 2.57-.142 3.113-.281.922-.236 1.646-.933 1.893-1.82.117-.416.2-.972.258-1.639.042-.484.069-.997.084-1.512.006-.18.008-.348.01-.497l.002-.14v-.104zm-1.386.096c0 .039 0 .081-.002.131-.002.144-.006.303-.01.475-.013.491-.04.982-.08 1.438-.053.595-.126 1.083-.216 1.41a1.27 1.27 0 01-.913.877c-.404.103-1.422.186-2.807.236a90.774 90.774 0 01-2.936.057h-.55l-.728-.005a91.002 91.002 0 01-2.208-.052c-1.384-.052-2.405-.133-2.807-.236a1.273 1.273 0 01-.913-.878c-.09-.326-.163-.814-.215-1.409-.04-.456-.066-.947-.081-1.438-.006-.172-.008-.333-.01-.475l-.002-.13v-.09c0-.038 0-.08.002-.13.002-.145.006-.303.01-.475.013-.492.04-.983.08-1.439.053-.595.126-1.082.216-1.409.12-.427.47-.764.913-.877.404-.104 1.423-.187 2.807-.236a90.774 90.774 0 012.936-.058h.55l.728.006c.753.009 1.506.026 2.208.052 1.385.051 2.405.133 2.807.236.443.114.793.45.913.877.09.327.163.814.215 1.41.04.455.066.946.081 1.438.006.171.008.332.01.474l.002.131v.09zm-8.952 2.43l4.466-2.493-4.466-2.456v4.95z" fill="#fff"/></svg>