<?xml version="1.0" encoding="utf-8"?><svg width="30" height="30" fill="none" xmlns="http://www.w3.org/2000/svg" viewBox="0 0 30 30"><circle cx="15" cy="15" r="15" fill="#006A6A"/><path fill-rule="evenodd" clip-rule="evenodd" d="M22.104 16.809s1.395 1.257 1.74 1.838a.098.098 0 01.015.028c.141.215.176.383.107.508-.117.205-.511.308-.645.317h-2.465c-.171 0-.528-.04-.963-.315-.332-.212-.663-.56-.983-.901-.477-.506-.89-.945-1.309-.945a.508.508 0 00-.155.023c-.317.091-.719.503-.719 1.6a.538.538 0 01-.504.538h-1.13c-.384 0-2.386-.123-4.162-1.832-2.176-2.092-4.13-6.289-4.15-6.326-.121-.271.134-.42.41-.42H9.68c.334 0 .443.185.518.35.088.19.414.949.95 1.801.865 1.387 1.397 1.951 1.822 1.951.08 0 .159-.018.228-.055.556-.278.452-2.089.426-2.462 0-.072 0-.808-.285-1.164-.204-.255-.55-.354-.76-.39a.881.881 0 01.328-.255c.38-.173 1.067-.198 1.75-.198h.378c.74.01.932.053 1.2.115.543.118.553.438.505 1.53a23.33 23.33 0 00-.028 1.075c0 .088-.004.187-.004.287-.017.56-.038 1.19.395 1.449a.378.378 0 00.187.049c.15 0 .6 0 1.818-1.91a13.67 13.67 0 00.977-1.911.581.581 0 01.185-.206.445.445 0 01.203-.044h2.928c.32 0 .536.044.578.154.071.179-.013.724-1.35 2.374-.225.275-.423.512-.596.72-1.212 1.452-1.212 1.525.071 2.627z" fill="#fff"/></svg>