<?xml version="1.0" encoding="utf-8"?><svg width="30" height="30" fill="none" xmlns="http://www.w3.org/2000/svg" viewBox="0 0 30 30"><path d="M6.875 18.75a4.347 4.347 0 002.946-1.163l7.825 4.472a4.357 4.357 0 00-.146 1.066 4.38 4.38 0 004.375 4.375 4.38 4.38 0 004.375-4.375 4.38 4.38 0 00-4.375-4.375 4.348 4.348 0 00-2.946 1.163l-7.825-4.472a4.19 4.19 0 00.135-.96l7.688-4.393a4.353 4.353 0 002.948 1.162 4.38 4.38 0 004.375-4.375A4.38 4.38 0 0021.875 2.5 4.38 4.38 0 0017.5 6.875c0 .37.06.723.146 1.066l-7.105 4.061A4.37 4.37 0 006.875 10 4.38 4.38 0 002.5 14.375a4.38 4.38 0 004.375 4.375zm15 2.5c1.034 0 1.875.841 1.875 1.875A1.877 1.877 0 0121.875 25 1.877 1.877 0 0120 23.125c0-1.034.841-1.875 1.875-1.875zm0-16.25c1.034 0 1.875.841 1.875 1.875a1.877 1.877 0 01-1.875 1.875A1.877 1.877 0 0120 6.875C20 5.841 20.841 5 21.875 5zm-15 7.5c1.034 0 1.875.841 1.875 1.875a1.877 1.877 0 01-1.875 1.875A1.877 1.877 0 015 14.375c0-1.034.841-1.875 1.875-1.875z" fill="#fff"/></svg>