<?xml version="1.0" encoding="utf-8"?><svg width="25" height="17" fill="none" xmlns="http://www.w3.org/2000/svg" viewBox="0 0 25 17"><path d="M11.803 7.023c0 .895-.293 1.58-.88 2.057-.585.477-1.42.715-2.501.715h-.89V13H6.13V4.434h2.467c1.07 0 1.87.218 2.402.656.535.437.803 1.082.803 1.933zM7.53 8.617h.744c.72 0 1.246-.125 1.582-.375.336-.25.504-.64.504-1.172 0-.492-.15-.86-.45-1.101-.302-.242-.77-.364-1.407-.364H7.53v3.012zm7.383-.199h.973c.652 0 1.125-.121 1.418-.363.293-.242.44-.602.44-1.078 0-.485-.16-.832-.476-1.043-.316-.211-.792-.317-1.43-.317h-.925v2.801zm0 1.16V13h-1.4V4.434h2.42c1.105 0 1.923.207 2.455.62.53.415.797 1.04.797 1.876 0 1.066-.555 1.826-1.665 2.279L19.941 13h-1.593l-2.051-3.422h-1.383z" fill="#A9BBBE"/><rect x=".5" y="1.5" width="24" height="15" rx="3.5" stroke="#A9BBBE"/></svg>