<?xml version="1.0" encoding="utf-8"?><svg viewBox="0 0 512 512" xmlns="http://www.w3.org/2000/svg" xmlns:xlink="http://www.w3.org/1999/xlink"><style>:root>svg{display:none}:root>svg:target{display:block}</style><svg fill="none" viewBox="0 0 8 6" id="icon-arrow-green" xmlns="http://www.w3.org/2000/svg"><path fill-rule="evenodd" clip-rule="evenodd" d="M7 6L4 2.973 1 6 0 4.99 4 .956 8 4.99 7 6z" fill="#27AE60"/></svg><svg fill="none" viewBox="0 0 22 24" id="icon-arrow-more" xmlns="http://www.w3.org/2000/svg"><path d="M21.06 13.06a1.5 1.5 0 000-2.12l-9.545-9.547a1.5 1.5 0 10-2.122 2.122L17.88 12l-8.486 8.485a1.5 1.5 0 102.122 2.122l9.546-9.546zM0 13.5h20v-3H0v3z" fill="#6F8488"/></svg><svg fill="none" viewBox="0 0 25 16" id="icon-arrow-news" xmlns="http://www.w3.org/2000/svg"><path d="M24.707 8.707a1 1 0 000-1.414L18.343.929a1 1 0 10-1.414 1.414L22.586 8l-5.657 5.657a1 1 0 001.414 1.414l6.364-6.364zM0 9h24V7H0v2z" fill="#fff"/></svg><svg fill="none" viewBox="0 0 8 6" id="icon-arrow-red" xmlns="http://www.w3.org/2000/svg"><path fill-rule="evenodd" clip-rule="evenodd" d="M1 0l3 3.027L7 0l1 1.01-4 4.035L0 1.01 1 0z" fill="#E10902"/></svg><svg fill="none" viewBox="0 0 24 22" id="icon-arrow-top" xmlns="http://www.w3.org/2000/svg"><path d="M13.06.94a1.5 1.5 0 00-2.12 0l-9.547 9.545a1.5 1.5 0 102.122 2.122L12 4.12l8.485 8.486a1.5 1.5 0 102.122-2.122L13.06.94zM13.5 22V2h-3v20h3z" fill="#CAD4D4"/></svg><svg fill="none" viewBox="0 0 21 21" id="icon-close" xmlns="http://www.w3.org/2000/svg"><path d="M2 2l17 17m0-17L2 19" stroke="#fff" stroke-width="3" stroke-linecap="round"/></svg><svg fill="none" viewBox="0 0 30 30" id="icon-facebook" xmlns="http://www.w3.org/2000/svg"><circle cx="15" cy="15" r="15" fill="#006A6A"/><path d="M13.658 22.5v-7.038h-1.915v-2.535h1.915v-2.164c0-1.701 1.13-3.263 3.737-3.263 1.055 0 1.835.098 1.835.098l-.061 2.367s-.796-.008-1.665-.008c-.94 0-1.09.421-1.09 1.12v1.85h2.83l-.124 2.535h-2.706V22.5h-2.756z" fill="#fff"/></svg><svg fill="none" viewBox="0 0 32 32" id="icon-facebook-col" xmlns="http://www.w3.org/2000/svg"><path d="M32 16.097C32 7.205 24.839 0 16 0S0 7.205 0 16.097C0 24.132 5.851 30.791 13.5 32V20.75H9.435v-4.653H13.5v-3.546c0-4.034 2.387-6.263 6.043-6.263 1.751 0 3.582.315 3.582.315v3.959h-2.018c-1.987 0-2.607 1.241-2.607 2.514v3.021h4.437l-.71 4.654H18.5V32C26.149 30.791 32 24.132 32 16.097z" fill="#395185"/></svg><svg fill="none" viewBox="0 0 29 29" id="icon-file" xmlns="http://www.w3.org/2000/svg"><path d="M16.313 1.813v7.25h7.25M5.438 1.813v25.375h18.125V9.063l-7.25-7.25H5.438z" stroke="#333" stroke-linecap="round" stroke-linejoin="round"/></svg><svg fill="none" viewBox="0 0 30 30" id="icon-instagram" xmlns="http://www.w3.org/2000/svg"><circle cx="15" cy="15" r="15" fill="#006A6A"/><path d="M15.002 10.898A4.095 4.095 0 0010.9 15a4.095 4.095 0 004.102 4.102A4.095 4.095 0 0019.103 15a4.095 4.095 0 00-4.101-4.102zm0 6.769A2.672 2.672 0 0112.335 15a2.67 2.67 0 012.667-2.667A2.67 2.67 0 0117.668 15c0 1.47-1.2 2.667-2.666 2.667zm5.225-6.937a.954.954 0 01-.956.957.957.957 0 11.957-.957zm2.717.971c-.06-1.282-.354-2.417-1.292-3.352-.936-.936-2.07-1.229-3.352-1.293-1.32-.075-5.28-.075-6.6 0-1.278.06-2.413.354-3.352 1.29-.938.934-1.228 2.07-1.292 3.351-.075 1.322-.075 5.28 0 6.602.06 1.282.354 2.417 1.292 3.352.94.936 2.07 1.229 3.352 1.293 1.32.075 5.28.075 6.6 0 1.281-.06 2.416-.354 3.352-1.293.935-.935 1.227-2.07 1.292-3.352.075-1.321.075-5.277 0-6.598zm-1.706 8.015a2.7 2.7 0 01-1.521 1.521c-1.053.418-3.552.322-4.715.322-1.164 0-3.666.092-4.715-.322a2.7 2.7 0 01-1.521-1.52c-.418-1.054-.321-3.553-.321-4.717 0-1.164-.093-3.667.321-4.716a2.7 2.7 0 011.52-1.521c1.053-.418 3.552-.322 4.716-.322 1.163 0 3.666-.092 4.715.322a2.7 2.7 0 011.52 1.52c.418 1.054.322 3.553.322 4.717 0 1.164.096 3.667-.321 4.716z" fill="#fff"/></svg><svg viewBox="0 0 512 512" id="icon-menu" xmlns="http://www.w3.org/2000/svg"><path d="M492 236H20c-11.046 0-20 8.954-20 20s8.954 20 20 20h472c11.046 0 20-8.954 20-20s-8.954-20-20-20zM492 76H20C8.954 76 0 84.954 0 96s8.954 20 20 20h472c11.046 0 20-8.954 20-20s-8.954-20-20-20zM492 396H20c-11.046 0-20 8.954-20 20s8.954 20 20 20h472c11.046 0 20-8.954 20-20s-8.954-20-20-20z"/></svg><svg fill="none" viewBox="0 0 32 32" id="icon-ok-col" xmlns="http://www.w3.org/2000/svg"><circle cx="16" cy="16" r="16" fill="#F7931E"/><path d="M15.518 19.678c-1.395-.145-2.653-.489-3.73-1.331-.134-.105-.272-.206-.394-.323-.472-.453-.52-.972-.146-1.506.32-.457.855-.58 1.412-.317.108.05.21.114.309.183 2.007 1.379 4.765 1.417 6.78.062.2-.154.413-.278.66-.342.482-.123.93.053 1.188.474.295.48.291.95-.072 1.323-.557.572-1.228.985-1.972 1.274-.704.273-1.476.41-2.239.502.115.125.17.187.242.26 1.036 1.04 2.077 2.078 3.11 3.122.352.356.426.797.232 1.211-.212.453-.686.75-1.151.719-.295-.02-.525-.167-.73-.373-.781-.787-1.578-1.56-2.344-2.362-.223-.233-.33-.189-.527.014-.787.81-1.587 1.607-2.392 2.4-.36.357-.79.42-1.21.217-.445-.216-.728-.67-.706-1.127.015-.309.167-.545.379-.756 1.026-1.025 2.048-2.052 3.072-3.078.068-.068.13-.14.23-.245z" fill="#fff"/><path d="M16.368 16.111c-2.49-.009-4.53-2.072-4.516-4.566A4.563 4.563 0 0116.423 7c2.519.007 4.54 2.068 4.528 4.615-.013 2.488-2.068 4.505-4.583 4.496zm2.263-4.56a2.219 2.219 0 00-2.226-2.224 2.222 2.222 0 00-2.231 2.251 2.219 2.219 0 002.242 2.208 2.214 2.214 0 002.215-2.235z" fill="#fff"/></svg><svg viewBox="-45 0 327 327" id="icon-pause" xmlns="http://www.w3.org/2000/svg"><path d="M158 0h71a8 8 0 018 8v311a8 8 0 01-8 8h-71a8 8 0 01-8-8V8a8 8 0 018-8zm0 0M8 0h71a8 8 0 018 8v311a8 8 0 01-8 8H8a8 8 0 01-8-8V8a8 8 0 018-8zm0 0" fill="#fff"/></svg><svg fill="none" viewBox="0 0 14 16" id="icon-play" xmlns="http://www.w3.org/2000/svg"><path d="M14 8L.5 15.794V.206L14 8z" fill="#fff"/></svg><svg fill="none" viewBox="0 0 25 17" id="icon-pr" xmlns="http://www.w3.org/2000/svg"><path d="M11.803 7.023c0 .895-.293 1.58-.88 2.057-.585.477-1.42.715-2.501.715h-.89V13H6.13V4.434h2.467c1.07 0 1.87.218 2.402.656.535.437.803 1.082.803 1.933zM7.53 8.617h.744c.72 0 1.246-.125 1.582-.375.336-.25.504-.64.504-1.172 0-.492-.15-.86-.45-1.101-.302-.242-.77-.364-1.407-.364H7.53v3.012zm7.383-.199h.973c.652 0 1.125-.121 1.418-.363.293-.242.44-.602.44-1.078 0-.485-.16-.832-.476-1.043-.316-.211-.792-.317-1.43-.317h-.925v2.801zm0 1.16V13h-1.4V4.434h2.42c1.105 0 1.923.207 2.455.62.53.415.797 1.04.797 1.876 0 1.066-.555 1.826-1.665 2.279L19.941 13h-1.593l-2.051-3.422h-1.383z" fill="#A9BBBE"/><rect x=".5" y="1.5" width="24" height="15" rx="3.5" stroke="#A9BBBE"/></svg><svg fill="none" viewBox="0 0 21 21" id="icon-search" xmlns="http://www.w3.org/2000/svg"><path d="M20.678 18.892l-4.76-4.76A8.794 8.794 0 0017.68 8.84C17.68 3.966 13.715 0 8.84 0 3.966 0 0 3.966 0 8.84c0 4.875 3.966 8.84 8.84 8.84a8.794 8.794 0 005.292-1.762l4.76 4.76a1.265 1.265 0 001.786-1.786zM2.526 8.84a6.314 6.314 0 116.314 6.315A6.322 6.322 0 012.526 8.84z" fill="#fff"/></svg><svg fill="none" viewBox="0 0 30 30" id="icon-share" xmlns="http://www.w3.org/2000/svg"><path d="M6.875 18.75a4.347 4.347 0 002.946-1.163l7.825 4.472a4.357 4.357 0 00-.146 1.066 4.38 4.38 0 004.375 4.375 4.38 4.38 0 004.375-4.375 4.38 4.38 0 00-4.375-4.375 4.348 4.348 0 00-2.946 1.163l-7.825-4.472a4.19 4.19 0 00.135-.96l7.688-4.393a4.353 4.353 0 002.948 1.162 4.38 4.38 0 004.375-4.375A4.38 4.38 0 0021.875 2.5 4.38 4.38 0 0017.5 6.875c0 .37.06.723.146 1.066l-7.105 4.061A4.37 4.37 0 006.875 10 4.38 4.38 0 002.5 14.375a4.38 4.38 0 004.375 4.375zm15 2.5c1.034 0 1.875.841 1.875 1.875A1.877 1.877 0 0121.875 25 1.877 1.877 0 0120 23.125c0-1.034.841-1.875 1.875-1.875zm0-16.25c1.034 0 1.875.841 1.875 1.875a1.877 1.877 0 01-1.875 1.875A1.877 1.877 0 0120 6.875C20 5.841 20.841 5 21.875 5zm-15 7.5c1.034 0 1.875.841 1.875 1.875a1.877 1.877 0 01-1.875 1.875A1.877 1.877 0 015 14.375c0-1.034.841-1.875 1.875-1.875z" fill="#fff"/></svg><svg fill="none" viewBox="0 0 30 30" id="icon-vk" xmlns="http://www.w3.org/2000/svg"><circle cx="15" cy="15" r="15" fill="#006A6A"/><path fill-rule="evenodd" clip-rule="evenodd" d="M22.104 16.809s1.395 1.257 1.74 1.838a.098.098 0 01.015.028c.141.215.176.383.107.508-.117.205-.511.308-.645.317h-2.465c-.171 0-.528-.04-.963-.315-.332-.212-.663-.56-.983-.901-.477-.506-.89-.945-1.309-.945a.508.508 0 00-.155.023c-.317.091-.719.503-.719 1.6a.538.538 0 01-.504.538h-1.13c-.384 0-2.386-.123-4.162-1.832-2.176-2.092-4.13-6.289-4.15-6.326-.121-.271.134-.42.41-.42H9.68c.334 0 .443.185.518.35.088.19.414.949.95 1.801.865 1.387 1.397 1.951 1.822 1.951.08 0 .159-.018.228-.055.556-.278.452-2.089.426-2.462 0-.072 0-.808-.285-1.164-.204-.255-.55-.354-.76-.39a.881.881 0 01.328-.255c.38-.173 1.067-.198 1.75-.198h.378c.74.01.932.053 1.2.115.543.118.553.438.505 1.53a23.33 23.33 0 00-.028 1.075c0 .088-.004.187-.004.287-.017.56-.038 1.19.395 1.449a.378.378 0 00.187.049c.15 0 .6 0 1.818-1.91a13.67 13.67 0 00.977-1.911.581.581 0 01.185-.206.445.445 0 01.203-.044h2.928c.32 0 .536.044.578.154.071.179-.013.724-1.35 2.374-.225.275-.423.512-.596.72-1.212 1.452-1.212 1.525.071 2.627z" fill="#fff"/></svg><svg fill="none" viewBox="0 0 32 32" id="icon-vk-col" xmlns="http://www.w3.org/2000/svg"><path d="M16 0C7.163 0 0 7.163 0 16s7.163 16 16 16 16-7.163 16-16S24.837 0 16 0zm6.153 18.052s1.415 1.396 1.764 2.045c.01.013.015.026.018.033.142.238.175.423.105.562-.117.23-.517.343-.653.353h-2.5c-.174 0-.537-.045-.977-.348-.338-.237-.672-.625-.997-1.004-.485-.563-.905-1.05-1.328-1.05a.51.51 0 00-.158.025c-.32.104-.73.56-.73 1.777 0 .38-.3.598-.512.598H15.04c-.39 0-2.422-.136-4.222-2.035-2.203-2.325-4.186-6.988-4.203-7.031-.125-.302.133-.464.415-.464h2.525c.337 0 .447.205.523.387.09.212.42 1.053.962 2 .878 1.543 1.417 2.17 1.848 2.17a.5.5 0 00.232-.06c.563-.313.458-2.322.433-2.738 0-.079-.001-.899-.29-1.292-.206-.285-.558-.393-.771-.433.086-.12.2-.216.331-.282.387-.193 1.084-.222 1.775-.222h.385c.75.01.944.059 1.215.127.55.132.562.487.514 1.702-.015.345-.03.735-.03 1.195 0 .1-.005.206-.005.32-.017.618-.037 1.32.4 1.608a.36.36 0 00.19.055c.151 0 .608 0 1.845-2.122.381-.683.713-1.392.991-2.123.025-.043.099-.177.185-.228a.444.444 0 01.207-.049h2.968c.324 0 .545.049.587.174.073.198-.013.803-1.368 2.638l-.605.798c-1.229 1.61-1.229 1.692.076 2.914z" fill="#4A76A8"/></svg><svg fill="none" viewBox="0 0 30 30" id="icon-youtube" xmlns="http://www.w3.org/2000/svg"><circle cx="15" cy="15" r="15" fill="#006A6A"/><path d="M24 14.948c0-.04 0-.087-.002-.14-.002-.15-.006-.318-.01-.497a26.637 26.637 0 00-.084-1.512c-.058-.667-.143-1.223-.258-1.64a2.554 2.554 0 00-.693-1.152 2.714 2.714 0 00-1.2-.667c-.545-.14-1.611-.228-3.113-.281a94.456 94.456 0 00-2.243-.052c-.267-.004-.516-.005-.739-.007h-.566c-.223.002-.472.003-.74.007-.764.01-1.528.026-2.242.052-1.502.055-2.57.142-3.113.28a2.711 2.711 0 00-1.2.667c-.332.32-.571.717-.693 1.153-.117.417-.2.973-.258 1.64-.042.483-.069.997-.084 1.512-.006.18-.008.347-.01.497l-.002.14v.104c0 .04 0 .086.002.14.002.15.006.317.01.497.015.515.042 1.028.084 1.512.058.667.143 1.223.258 1.64.247.884.97 1.583 1.893 1.819.543.14 1.611.227 3.113.28.714.026 1.478.043 2.243.052.267.004.516.006.739.008h.566c.223-.002.472-.004.74-.008.764-.009 1.528-.026 2.242-.051 1.502-.056 2.57-.142 3.113-.281.922-.236 1.646-.933 1.893-1.82.117-.416.2-.972.258-1.639.042-.484.069-.997.084-1.512.006-.18.008-.348.01-.497l.002-.14v-.104zm-1.386.096c0 .039 0 .081-.002.131-.002.144-.006.303-.01.475-.013.491-.04.982-.08 1.438-.053.595-.126 1.083-.216 1.41a1.27 1.27 0 01-.913.877c-.404.103-1.422.186-2.807.236a90.774 90.774 0 01-2.936.057h-.55l-.728-.005a91.002 91.002 0 01-2.208-.052c-1.384-.052-2.405-.133-2.807-.236a1.273 1.273 0 01-.913-.878c-.09-.326-.163-.814-.215-1.409-.04-.456-.066-.947-.081-1.438-.006-.172-.008-.333-.01-.475l-.002-.13v-.09c0-.038 0-.08.002-.13.002-.145.006-.303.01-.475.013-.492.04-.983.08-1.439.053-.595.126-1.082.216-1.409.12-.427.47-.764.913-.877.404-.104 1.423-.187 2.807-.236a90.774 90.774 0 012.936-.058h.55l.728.006c.753.009 1.506.026 2.208.052 1.385.051 2.405.133 2.807.236.443.114.793.45.913.877.09.327.163.814.215 1.41.04.455.066.946.081 1.438.006.171.008.332.01.474l.002.131v.09zm-8.952 2.43l4.466-2.493-4.466-2.456v4.95z" fill="#fff"/></svg></svg>